<?xml version="1.0" encoding="utf-8"?>
<svg id="logo-nav" class="fv-logo-nav ps-4 ps-lg-0 text-white" width="100%" height="100%" viewBox="0 0 144 38" fill="none" xmlns="http://www.w3.org/2000/svg" alt="logo-Finvero" title="logo finvero" loading="lazy">
  <path fill-rule="evenodd" clip-rule="evenodd" d="M6.55996 13.9955H13.1492V19.9629H6.55996V37.1987H0.000464901V10.6872C-0.0159671 8.98363 0.40343 7.30248 1.2215 5.79264C2.02253 4.3088 3.20451 3.04779 4.65459 2.13002L4.7244 2.08477C7.25815 0.632189 10.2668 0.155201 13.1492 0.749091C13.3237 2.1905 13.4641 3.33905 13.6166 4.58617C13.6911 5.19571 13.7685 5.8288 13.8541 6.53113C12.8096 6.41368 11.7511 6.51458 10.7506 6.82697C9.73739 7.14258 8.80463 7.66092 8.0133 8.34809C7.32519 9.1044 6.83575 10.0093 6.58628 10.9863C6.33257 11.9734 6.32355 13.0043 6.55996 13.9955ZM110.749 37.1987V27.5244C110.749 26.5583 110.964 25.6035 111.378 24.7239C111.785 23.8567 112.385 23.0867 113.136 22.4687C114.72 21.3194 116.608 20.6229 118.583 20.4586V13.8089C115.447 13.725 112.373 14.6642 109.859 16.4747C109.643 16.6359 109.428 16.8059 109.224 16.9759C107.6 18.3805 106.312 20.1085 105.448 22.0404C104.568 23.9996 104.125 26.1157 104.15 28.2508V37.1998L110.749 37.1987ZM132.329 37.4945C122.342 37.8091 116.971 24.5175 124.204 17.5797C134.847 6.91638 151.169 23.0781 140.554 33.9743L140.464 34.0703C139.412 35.1501 138.144 36.0136 136.737 36.6092C135.347 37.1952 133.846 37.4967 132.329 37.4945ZM132.469 20.0601C124.926 19.7002 124.687 31.9001 132.329 31.6507C139.716 31.8471 139.814 20.1241 132.469 20.059V20.0601ZM59.4353 13.8983H52.9273L62.3111 37.2947H68.8191L77.1626 13.8983H70.6546L65.4546 28.8402L59.4353 13.8983ZM23.5927 13.8023L17.0401 16.9693V37.1987H23.5927V13.8023ZM35.3647 25.6103V37.2947H28.8419V13.8983H35.3647V16.8081L35.3672 16.807C35.6898 16.6654 41.9309 13.926 47.0155 17.2574C47.2192 17.392 47.4218 17.54 47.6129 17.6989C48.8144 18.5663 49.8062 19.6751 50.5197 20.9487C51.2332 22.2223 51.6513 23.6301 51.7452 25.0749V37.3212H45.2944C45.2727 36.2396 45.2827 34.2946 45.2935 32.1828V32.1821C45.3049 29.9533 45.3173 27.539 45.2944 25.7582C45.2944 23.7415 42.4186 22.1221 40.1768 22.1221C38.0117 22.0835 35.3647 23.6697 35.3647 25.6103ZM85.4799 29.8944C89.4108 28.7177 97.3401 26.1788 101.252 24.8542C98.6046 9.63299 78.2166 10.8406 78.1285 26.1104C78.8197 39.2541 95.9634 41.6329 100.628 29.6184C100.146 29.4887 98.2131 29.249 96.5547 29.0433C95.7436 28.9427 94.9981 28.8503 94.5204 28.7828C92.845 32.0723 87.9117 32.4642 85.4799 29.8944ZM84.1429 24.2918L93.4927 21.4046C90.2315 18.657 84.9674 19.7901 84.1429 24.2918Z" style="fill: rgb(11, 84, 183);"/>
</svg>